<?xml version="1.0" encoding="UTF-8" standalone="no"?>
<!-- Created with Inkscape (http://www.inkscape.org/) -->

<svg
   width="507.79443mm"
   height="154.82942mm"
   viewBox="0 0 507.79443 154.82942"
   version="1.1"
   id="svg1"
   xml:space="preserve"
   inkscape:version="1.4.4 (dcaf3e7d9e, 2026-05-05)"
   sodipodi:docname="logo-MLC.svg"
   xmlns:inkscape="http://www.inkscape.org/namespaces/inkscape"
   xmlns:sodipodi="http://sodipodi.sourceforge.net/DTD/sodipodi-0.dtd"
   xmlns="http://www.w3.org/2000/svg"
   xmlns:svg="http://www.w3.org/2000/svg"><sodipodi:namedview
     id="namedview1"
     pagecolor="#404040"
     bordercolor="#eeeeee"
     borderopacity="1"
     inkscape:showpageshadow="0"
     inkscape:pageopacity="0"
     inkscape:pagecheckerboard="0"
     inkscape:deskcolor="#404040"
     inkscape:document-units="mm"
     inkscape:zoom="0.76257014"
     inkscape:cx="925.1608"
     inkscape:cy="409.14269"
     inkscape:window-width="2496"
     inkscape:window-height="1011"
     inkscape:window-x="0"
     inkscape:window-y="32"
     inkscape:window-maximized="1"
     inkscape:current-layer="layer1" /><defs
     id="defs1" /><g
     inkscape:label="Layer 1"
     inkscape:groupmode="layer"
     id="layer1"
     transform="translate(88.010706,65.219004)"><g
       id="g11"
       transform="translate(60.879954,-136.13656)"><g
         id="g14"><path
           id="circle3"
           style="opacity:1;fill:#ffffff;fill-opacity:1;stroke-width:1.32292;stroke-linecap:square;stroke-dasharray:1.32292, 2.64583"
           d="M -87.622565 86.525906 L -88.132095 95.523806 A 61.530422 61.530422 0 0 0 -101.28426 98.98406 L -106.27724 91.366437 L -121.30475 100.04291 L -117.25125 108.0817 A 61.530422 61.530422 0 0 0 -126.96125 117.66664 L -135.09409 113.57697 L -143.77004 128.60499 L -136.27231 133.53027 L -136.27231 133.53079 A 61.530422 61.530422 0 0 0 -139.90775 146.68761 L -148.89066 147.20592 L -148.89066 164.55835 L -140.06381 165.06736 A 61.530422 61.530422 0 0 0 -136.62216 178.36474 L -144.02429 183.2275 L -135.34833 198.255 L -127.57878 194.34775 A 61.530422 61.530422 0 0 0 -117.79333 204.27479 L -117.88118 204.22415 L -121.74503 211.9751 L -106.71752 220.65157 L -101.99947 213.52436 A 61.530422 61.530422 0 0 0 -88.65506 217.18615 L -88.131061 225.74687 L -70.778632 225.74687 L -70.260317 217.27968 A 61.530422 61.530422 0 0 0 -56.850283 213.74295 L -52.134809 220.86603 L -37.106785 212.18955 L -40.895702 204.5895 A 61.530422 61.530422 0 0 0 -31.085964 194.81387 L -23.386693 198.69529 L -14.71022 183.66778 L -21.902029 178.95437 A 61.530422 61.530422 0 0 0 -21.902029 178.95386 A 61.530422 61.530422 0 0 0 -18.303799 165.56036 L -9.5901188 165.06685 L -9.5901188 147.71442 L -18.304832 147.22091 A 61.530422 61.530422 0 0 0 -18.780256 144.48878 C -19.100385 144.77002 -19.448679 145.02701 -19.834972 145.25152 C -23.359402 147.72887 -26.471435 150.73353 -29.590965 153.69183 C -32.858244 156.31691 -36.280444 158.76066 -39.770189 161.08466 C -36.693467 159.03572 -33.669113 156.89362 -30.757302 154.61632 A 48.945675 48.945675 0 0 1 -30.731464 156.21468 A 48.945675 48.945675 0 0 1 -78.940924 205.15484 C -79.073416 205.3899 -79.20724 205.62421 -79.339867 205.85919 C -81.283063 206.49767 -83.293573 206.9164 -85.315729 207.21053 C -90.647632 207.98572 -96.386087 207.72218 -101.6584 205.97856 C -106.60306 204.38452 -111.13761 201.39866 -114.67466 197.5336 C -120.40022 191.29671 -123.69164 183.24479 -125.73032 175.1267 C -125.52984 174.87616 -125.32928 174.62586 -125.1288 174.37532 A 48.945675 48.945675 0 0 1 -128.62265 156.21468 A 48.945675 48.945675 0 0 1 -87.93159 107.97007 C -88.431987 109.29081 -88.873924 110.62953 -89.347008 111.95898 C -88.800847 110.42427 -88.278733 108.88212 -87.699046 107.35823 C -85.287227 101.22056 -82.671096 95.093369 -79.496446 89.342271 C -78.977957 88.312315 -78.314821 87.38145 -77.561164 86.525906 L -87.622565 86.525906 z M -90.496292 115.19754 C -91.319623 117.76352 -92.03329 120.36071 -92.526659 123.01722 C -92.033267 120.36057 -91.319699 117.76355 -90.496292 115.19754 z " /><path
           id="path1"
           style="opacity:1;fill:#ffffff;fill-opacity:1;stroke-width:1.32292;stroke-linecap:square;stroke-dasharray:1.32292, 2.64583"
           d="m -48.529858,70.99825 c 1.213528,0.08989 3.57353,1.932537 3.933094,2.269629 0.359566,0.337091 -0.247225,0.382283 -0.08992,0.854211 3.618117,3.685532 5.348439,6.741485 6.00015,8.651669 -1.640512,0.831493 -3.329778,3.548595 -2.598808,6.536035 0.730969,2.987441 4.163048,5.402513 4.735112,5.434293 0.572063,0.03178 2.920043,-0.509155 4.043681,-1.003556 -0.853964,0.179783 -3.146218,0.04492 -3.685563,-0.08992 -0.539345,-0.134837 -1.618223,-1.123705 -2.427242,-2.022615 -0.80902,-0.898911 -2.291889,-3.685436 -2.426726,-5.033802 0.269673,-0.629237 1.348332,-1.977477 3.460771,-3.146061 1.483204,1.30342 2.022605,2.651572 3.77548,4.629175 1.752875,1.977602 3.415812,3.640605 3.415812,3.640605 0,0 1.280974,-0.02211 1.88774,2.13527 -0.247203,-2.112439 -1.079004,-2.629297 -1.079004,-2.629297 0,0 6.382392,-3.910678 9.393742,-3.236495 3.01135,0.674182 5.43849,4.809618 5.66322,6.922058 0.224726,2.112439 -1.078549,2.696605 -1.303279,3.146061 -0.224724,0.449455 0.179743,0.763893 -0.134876,1.168404 -0.314619,0.404508 -1.662885,1.438156 -3.235978,3.191026 -2.606839,0.53935 -17.618979,9.34901 -19.057235,10.15803 -1.438257,0.80902 -1.123589,0.1798 -1.617989,0.2248 -0.494401,0.0449 -0.584282,0.76373 -1.752864,0.80873 -1.168586,0.0449 -2.696683,-1.30348 -3.415812,-2.02261 -0.719127,0.17978 -2.292095,-0.71883 -3.146062,-4.31447 -0.853964,-3.59564 0.931962,-4.89751 3.696932,-5.04052 2.764972,-0.14302 3.496141,0.36566 6.769613,0.46096 3.27347,0.0954 4.735093,-1.33493 6.769096,-2.68563 2.034002,-1.350709 2.701644,-2.526966 2.828768,-4.052467 -0.317812,1.017001 -0.762741,1.77973 -1.334802,2.351794 -0.572064,0.572061 -4.894253,3.114543 -7.182508,3.114543 -2.288251,0 -12.839517,-4.830712 -13.665832,-5.402775 -0.826312,-0.572063 -6.610442,-10.233462 -7.627442,-12.775965 -0.635627,0.508501 -0.95343,1.906853 -0.95343,2.796729 0,0.889876 1.334806,4.067962 1.080554,4.830713 -0.254248,0.762751 -3.115042,5.148517 -4.767667,5.847705 -1.652627,0.699189 -7.818128,2.097546 -7.818128,2.097546 l 12.204423,0.31781 c 0,0 3.87728,1.271687 4.258655,9.153447 0.381373,7.88176 -5.584453,21.59355 -6.618201,23.48126 0.629237,-0.76408 3.100977,-2.33706 4.449341,-3.19102 1.348367,-0.85396 2.202607,-0.40449 4.539775,0.0899 2.337167,0.4944 6.02239,3.68534 6.06733,4.67414 0.04495,0.9888 -0.314555,1.12387 0.224792,2.60707 0.539346,1.4832 5.932779,5.3033 7.056417,6.20221 1.123638,0.89891 3.640581,2.38222 5.348511,2.33732 1.707931,-0.045 3.7757,-1.34831 4.539774,-1.57303 0.764072,-0.22473 3.101208,-1.75283 5.258594,-3.41581 2.292221,-0.22473 4.674085,-1.07885 8.089946,-2.38228 -1.842767,0.94386 -3.236083,3.01134 -3.595647,3.59564 -0.359566,0.58429 0.224754,0.67412 0.08992,1.57303 -0.134837,0.89891 -1.48335,2.74154 -4.090189,4.89893 -2.606842,2.15739 -4.044808,1.5733 -6.157247,2.51716 -2.112439,0.94386 -4.898902,3.55051 -6.606832,4.71909 -1.707928,-0.35957 -3.596068,0.899 -10.427787,5.66322 -6.831719,4.76423 -14.112889,7.82056 -17.888314,7.28121 -3.775424,-0.53935 -7.64062,-10.78684 -8.539531,-15.82074 -1.618038,6.47216 1.528101,14.38274 3.415813,16.71991 1.88771,1.88771 2.157386,3.41558 1.797823,4.40438 -0.359564,0.9888 -2.337094,1.52798 -3.325895,2.96623 -0.988801,1.43826 -0.809048,1.70803 -1.887741,3.95531 -1.078693,2.24728 -8.71963,14.47239 -15.012003,24.80986 -22.113197,-4.67434 -27.177087,-13.86316 -33.406227,-21.99917 13.34814,-13.09389 16.68651,-24.56438 15.56287,-28.11508 0.44946,-2.74168 5.528322,-9.16846 7.236252,-11.05618 1.707928,-1.88771 3.64071,-1.48348 5.798096,0.80874 2.157386,2.29223 7.371349,5.57325 9.933244,5.39347 -0.359566,-1.52815 -3.730874,-8.2249 -4.944401,-10.2924 -1.21353,-2.06749 -1.213363,-5.07883 -1.213363,-7.14633 0,-2.06749 0.04488,-1.79786 -0.224792,-5.48339 -0.269671,-3.68553 1.618236,-7.82049 2.4722,-8.85424 0.853963,-1.03374 1.707906,-2.4722 1.707906,-4.27002 0,-1.79782 -0.404364,-12.04508 2.292367,-15.01149 -0.314618,-1.752875 1.438082,-8.944121 4.76405,-10.607105 2.606842,-3.865315 14.922045,-11.281798 23.731368,-15.956132 -9.168887,2.876514 -21.721838,10.63816 -25.094075,15.112773 -3.369971,4.471604 -13.444505,27.293264 -14.637867,37.203934 -0.610552,5.07054 -4.135154,14.38264 -11.326435,23.55153 -7.19128,9.16889 -21.75372,27.32702 -21.75372,27.32702 10.95703,44.59926 47.329932,31.29421 47.329932,31.29421 0,0 12.203898,-21.80176 13.220898,-23.32726 1.017003,-1.5255 2.606031,-2.66959 4.131531,-4.06797 1.525503,-1.39838 2.733657,-6.35618 5.78466,-9.21649 3.051003,-2.86032 7.43671,-3.11451 12.64884,-5.91126 5.212131,-2.79675 13.729395,-9.47126 13.729395,-9.47126 0,0 6.864665,-6.73755 10.360607,-8.89868 3.49594,-2.16113 8.12466,-13.14465 8.439279,-13.95367 0.314632,-0.80902 -0.382302,-0.29214 -0.02274,-2.6293 0.359566,-2.33717 -2.224904,-5.84289 -3.033923,-7.05642 -0.809022,-1.21353 -1.055962,-1.61802 -0.898654,-1.75286 0.157311,-0.13483 0.629137,0.60687 1.438156,-0.51677 0.809019,-1.12364 1.348478,-5.37112 1.281058,-5.84305 -0.06742,-0.47193 -0.921522,-2.22492 -1.370975,-4.00027 -0.449455,-1.77535 -2.202088,-4.15752 -2.741435,-4.69687 -0.539346,-0.53933 -1.079068,-0.26935 -1.303797,-0.62891 -0.224726,-0.35957 0.719455,-0.42716 1.123963,-0.58446 0.404511,-0.15731 0.808794,-1.30347 1.909961,-3.73052 1.101164,-2.427061 0.876572,-6.606686 -0.426847,-8.786544 -1.303422,-2.179858 -3.370838,-3.708217 -6.000151,-4.314982 2.539423,-2.966404 3.190891,-5.595521 2.741435,-8.26978 -0.449453,-2.674258 -3.145952,-4.854549 -3.662826,-5.079276 -0.516874,-0.224728 -5.033761,-1.932292 -9.371004,-1.415418 -4.337243,0.516873 -8.540047,5.66322 -8.540047,5.66322 0,0 -0.831351,-0.94407 -1.30328,-1.640726 -0.471927,-0.696656 -2.022624,-3.865263 -2.944006,-4.292245 -0.921383,-0.426983 -2.359717,-0.921372 -4.74183,-0.876432 z m 23.358781,2.790527 c 0.929851,0.01055 1.766777,0.253952 2.541447,0.869715 1.23947,0.98522 3.908807,3.941091 3.845244,5.307686 -0.06356,1.366595 -0.285749,2.351762 -2.955376,6.038391 -2.288254,0.06356 -2.701851,0.253952 -8.517826,4.67155 0,0 0.09535,-0.730686 -1.525488,-2.955376 -1.620846,-2.22469 -3.718363,-5.053427 -5.339209,-6.324678 0,-1.334814 -0.127132,-1.112068 0.889868,-2.192631 1.017003,-1.080564 6.420255,-4.671803 9.28057,-5.212085 0.631653,-0.131098 1.22286,-0.208903 1.78077,-0.202572 z m 4.416268,31.379993 c 1.303034,-0.0318 4.036437,2.38358 5.053438,3.24167 1.017,0.8581 1.684135,1.74767 1.684135,4.67155 0,2.92387 -1.08055,5.53015 -1.58905,5.75262 -0.508503,0.22246 -2.224404,-0.63562 -3.146061,-0.63562 -0.921658,0 -5.275884,0.9852 -7.786605,2.28823 0.921657,-0.28603 4.163561,-0.38137 4.989876,-0.57206 0.826312,-0.19069 2.097526,-0.44495 4.449341,1.14412 2.351815,1.58906 3.972366,7.91344 4.163054,9.97923 0.190688,2.06578 -1.366576,2.92411 -2.288233,3.59151 -0.921655,0.66741 -4.385506,1.3981 -5.752103,2.06551 -1.366594,0.6674 -8.200009,4.16356 -9.089885,4.54494 -0.889875,0.38138 -2.891809,0.34958 -3.400309,1.27124 0.03178,-1.08056 -4.576458,-5.75261 -5.529895,-6.51536 -0.953439,-0.76275 -2.638082,-2.79645 -2.638082,-4.09949 0,-1.30303 1.430387,-3.11478 3.273702,-4.48138 1.843315,-1.36659 10.011275,-5.81618 10.011275,-5.81618 0,0 -6.388489,2.92384 -7.37371,3.43234 -0.985218,0.50851 -1.048764,0.47698 -2.097546,0.47698 -1.589063,1.93866 -3.241655,1.71618 -4.258655,1.27124 -1.017002,-0.44494 -4.576464,-3.7504 -4.767151,-5.68906 -0.190688,-1.93866 0.540532,-2.82825 0.921908,-3.591 0.381376,-0.76275 0.826287,-1.08055 2.86029,-1.08055 2.733191,-0.88988 7.754532,-4.51288 11.441162,-6.73757 3.686628,-2.22469 8.835102,-4.51291 10.869104,-4.51291 z" /></g><g
         id="g10"><path
           id="path2"
           style="font-size:25.3484px;line-height:1.2;font-family:Anton;-inkscape-font-specification:Anton;text-align:start;letter-spacing:28.3104px;text-anchor:start;white-space:pre;fill:#ffffff;fill-opacity:1;stroke-width:5.29167;stroke-linecap:square;stroke-dasharray:5.29167, 31.75"
           d="m 72.793486,105.42509 c -1.757555,0 -4.254324,0.58642 -5.352128,1.55184 -1.089553,0.96542 -2.069172,2.27705 -2.420524,4.14187 l -1.949235,10.34717 c -0.374672,1.98859 -0.203765,3.51097 0.513147,4.56716 0.72672,1.04793 3.27828,1.67535 5.019332,1.67535 1.741052,0 4.122506,-0.62742 5.235856,-1.67535 1.123158,-1.05619 1.87222,-2.57857 2.246891,-4.56716 l 1.949752,-10.34717 c 0.351352,-1.86482 -0.09953,-3.17645 -0.833541,-4.14187 -0.725762,-0.96542 -2.651995,-1.55184 -4.40955,-1.55184 z m 280.745654,0 c -1.75756,0 -4.25432,0.58642 -5.35213,1.55184 -1.08955,0.96542 -2.06917,2.27705 -2.42052,4.14187 l -1.94924,10.34717 c -0.37467,1.98859 -0.20377,3.51097 0.51315,4.56716 0.72672,1.04793 3.27827,1.67535 5.01933,1.67535 1.74105,0 4.12251,-0.62742 5.23586,-1.67535 1.12315,-1.05619 1.87222,-2.57857 2.24689,-4.56716 l 1.94975,-10.34717 c 0.35135,-1.86482 -0.0995,-3.17645 -0.83354,-4.14187 -0.72576,-0.96542 -2.652,-1.55184 -4.40955,-1.55184 z m -247.34976,0.18552 -0.56999,21.7966 h 5.94124 l 8.21345,-21.7966 h -5.3604 l -4.52788,15.51275 1.30069,-15.51275 z m -86.653108,0.0124 -4.104659,21.7842 h 4.46536 l 3.123324,-15.69465 -0.215491,15.69465 h 3.548104 l 5.778976,-15.69465 -3.175,15.69465 h 4.888073 l 4.104659,-21.7842 h -7.599019 l -3.906738,11.69334 0.784448,-11.69334 z m 127.867128,0 -4.10414,21.7842 h 4.89272 l 4.10466,-21.7842 z m 33.1432,0 -4.10414,21.7842 h 4.46536 l 3.1228,-15.69465 -0.21497,15.69465 h 3.5481 l 5.77898,-15.69465 -3.175,15.69465 h 4.88807 l 4.10466,-21.7842 h -7.59902 l -3.90725,11.69334 0.78496,-11.69334 z m 46.36978,0 -4.10414,21.7842 h 11.28096 l 0.79995,-3.97547 h -6.15466 l 0.78445,-4.72891 h 5.37486 l 0.8754,-4.47053 h -5.42654 l 0.85163,-4.40076 h 6.28489 l 0.79271,-4.20853 z m 39.64719,0 -4.10414,21.7842 h 4.78679 l 2.27014,-13.00903 1.49603,13.00903 h 5.68958 l 4.10414,-21.7842 h -5.00744 l -2.28772,12.65452 -1.73013,-12.65452 z m 41.62175,0 -0.82527,4.33048 h 3.11609 l -3.27939,17.45372 h 4.88601 l 3.27938,-17.45372 h 3.22616 l 0.82476,-4.33048 z m -236.25173,3.81217 c 0.643609,0 1.393764,0.53651 1.191659,1.6092 l -2.003495,10.63191 c -0.240973,1.27897 -0.974251,2.64945 -1.973523,2.64945 -0.999271,0 -1.615511,-0.95746 -1.144116,-2.62464 l 2.000911,-10.61951 c 0.20677,-1.09744 1.202438,-1.64641 1.928564,-1.64641 z m 280.74565,0 c 0.64361,0 1.39377,0.53651 1.19166,1.6092 l -2.00349,10.63191 c -0.24097,1.27897 -0.97425,2.64945 -1.97352,2.64945 -0.99927,0 -1.4649,-0.92205 -1.14412,-2.62464 l 2.00091,-10.61951 c 0.20677,-1.09744 1.20244,-1.64641 1.92856,-1.64641 z" /><g
           id="g9"><path
             style="font-size:55.5625px;line-height:1.2;font-family:Anton;-inkscape-font-specification:Anton;text-align:start;letter-spacing:0.792135px;text-anchor:start;white-space:pre;fill:#ffffff;fill-opacity:1;stroke-width:5.29167;stroke-linecap:square;stroke-dasharray:5.29167, 31.75"
             d="m 3.5485906,185.99276 10.4261784,-53.727 h 11.889217 l -8.667652,44.02711 h 14.22338 l -1.758529,9.69989 z m 46.0457134,-43.38163 -3.80754,20.69652 c -0.64072,3.48274 -2.436028,6.11891 -4.28276,7.91689 -1.844001,1.78347 -5.948474,3.20437 -9.138429,3.20437 -3.189944,0 -6.958403,-1.4209 -8.130347,-3.20437 -1.169222,-1.79798 -1.426004,-4.43693 -0.770348,-7.91689 l 5.282159,-28.03531 h 8.49671 l -5.224782,27.73082 c -0.590514,3.13419 0.484296,4.37886 1.674323,4.37886 2.329869,0.0307 2.739656,-2.39394 3.124953,-4.37886 l 5.224783,-27.73082 h 28.082895 l -1.385081,7.35139 h -5.604016 l -5.827165,30.92801 h -8.71422 l 5.827175,-30.92801 z m 10.772222,30.94061 14.084699,-38.2794 H 86.37744 l -0.934229,38.2794 h -8.830127 l 0.09088,-6.17691 h -6.198432 l -1.642279,6.17691 z m 12.363417,-13.34688 h 5.067444 l 1.463708,-18.40762 h -0.347999 z"
             id="path5"
             sodipodi:nodetypes="ccccccccscscsccssscccccccccccccccccccccc" /><path
             style="font-size:55.5625px;line-height:1.2;font-family:Anton;-inkscape-font-specification:Anton;text-align:start;letter-spacing:0.792135px;text-anchor:start;white-space:pre;fill:#ffffff;fill-opacity:1;stroke-width:5.29167;stroke-linecap:square;stroke-dasharray:5.29167, 31.75"
             d="m 103.71341,166.78761 h 1.8559 c 1.40648,0 3.29645,-0.6815 3.55325,-2.04447 l 3.72087,-19.74871 c 0.14819,-0.78653 0.55163,-2.81585 -2.01856,-2.81585 h -2.43573 z m 19.7823,-31.51527 h 20.07426 l -1.39327,7.39489 h -11.02221 l -1.40557,7.46012 h 9.5557 l -1.35639,7.72831 h -9.55571 l -1.65144,8.23596 h 10.99328 l -1.40557,7.46012 h -20.04534 l 2.39809,-11.35332 c -0.68298,3.62495 -2.17005,6.4234 -3.81757,8.39537 -1.63302,1.97198 -4.56642,2.95795 -7.74186,2.95795 H 93.681264 l 7.212246,-38.2794 h 13.70184 c 2.75497,0 5.57566,0.66481 6.67806,2.20179 1.10513,1.52247 1.33936,3.85912 0.78478,6.80258 z"
             id="path6"
             sodipodi:nodetypes="cssssccccccccccccccccsccsccc" /><path
             id="path7"
             style="font-size:55.5625px;line-height:1.2;font-family:Anton;-inkscape-font-specification:Anton;text-align:start;letter-spacing:0.792135px;text-anchor:start;white-space:pre;fill:#ffffff;fill-opacity:1;stroke-width:5.29167;stroke-linecap:square;stroke-dasharray:5.29167, 31.7499"
             d="m 168.79538,134.49877 c -10.86125,0 -18.34863,4.36613 -20.68814,16.78347 l -4.73977,25.15609 c -2.31238,12.27297 7.74355,14.00276 10.49755,14.00276 8.1785,0 14.54639,-0.8562 18.11776,-6.78202 l -1.21285,6.28644 h 23.59288 9.30279 l 3.39773,-9.32759 h 8.78809 l -0.67593,9.32759 h 12.7553 l 0.045,-2.80396 c 0.0974,0.15378 0.19721,0.30884 0.29869,0.4656 2.51361,3.8829 10.54175,3.99048 14.68747,3.40651 8.10603,-1.14182 12.1705,-4.38101 14.29887,-7.58713 0.34619,1.63748 1.08067,2.83732 1.95027,4.18062 2.51361,3.8829 10.54124,3.99048 14.68696,3.40651 6.96907,-0.98167 10.95102,-3.51359 13.28342,-6.24199 l -0.98805,5.17384 H 314.433 l 0.71934,-3.78633 c 0.26991,0.48235 0.57067,0.9557 0.88935,1.44797 2.51361,3.8829 10.54175,3.99048 14.68747,3.40651 14.72017,-2.0735 16.11274,-11.0641 16.78554,-14.21153 2.63604,-12.33167 -9.85193,-17.87671 -13.46429,-22.14387 -1.82893,-2.16045 -2.79673,-3.52315 -2.79673,-5.58829 0,-2.4385 2.42135,-4.30258 5.56142,-4.30258 2.77326,0 3.51815,3.809 3.23753,5.29839 l -0.70642,3.74912 h 12.14913 c 2.54076,-14.21119 -4.58517,-18.64286 -14.97842,-18.78697 -5.71754,-0.0793 -10.23816,3.37504 -13.14183,7.57629 l 1.2516,-6.44767 h -28.16003 l -1.64073,8.58965 c -1.47467,-7.12729 -7.40152,-9.61097 -15.13965,-9.71827 -7.62783,-0.10576 -13.1255,6.07769 -15.49517,11.93364 -0.63976,-8.8363 -6.95021,-11.8159 -15.44144,-11.93364 -10.45044,-0.1449 -16.90242,11.51496 -16.79019,17.9648 0.23448,13.47599 16.21957,14.58397 14.24668,24.88737 -0.57115,2.98283 -1.86042,3.5715 -3.86282,3.71812 -0.96489,0.0707 -4.47488,-0.6364 -4.35425,-4.02766 0.069,-1.93904 1.14153,-5.68596 1.14153,-5.68596 l -10.91148,0.0925 0.57774,-36.02778 h -16.90801 l -16.61294,44.18387 h -10.58436 l 8.52196,-43.96579 h -12.06697 l -1.21801,6.31279 c -0.94295,-5.34322 -5.54523,-7.98142 -11.13317,-7.98142 z m 49.5701,10.00817 h 0.49558 l -2.20555,26.34723 h -6.54431 z m 30.68236,0.26045 c 2.77326,0 3.51764,3.809 3.23702,5.29839 l -0.7059,3.74912 h 11.35124 c 0.85476,12.70379 16.14457,13.97533 14.21257,24.0652 -0.57115,2.98283 -1.86041,3.5715 -3.86281,3.71812 -0.96489,0.0707 -4.47489,-0.6364 -4.35426,-4.02766 0.069,-1.93904 1.14153,-5.68596 1.14153,-5.68596 l -10.04021,0.0853 c -0.99245,-9.03959 -10.64143,-13.6468 -13.74386,-17.3116 -1.82893,-2.16045 -2.79673,-3.52315 -2.79673,-5.58829 0,-2.4385 2.42134,-4.30258 5.56141,-4.30258 z m 30.93662,0 c 2.77326,0 3.51763,3.809 3.23701,5.29839 l -0.70642,3.74912 h 10.5792 l -2.86597,15.00322 c -2.54035,-7.01095 -10.2896,-10.9475 -13.00903,-14.15986 -1.82893,-2.16045 -2.79621,-3.52315 -2.79621,-5.58829 0,-2.4385 2.42135,-4.30258 5.56142,-4.30258 z m -114.87516,0.29817 c 2.15033,0 3.62411,1.58502 3.12746,4.04782 l -1.51774,7.52564 h 10.4774 l -2.32389,12.04371 h -10.31927 l -1.43557,7.60057 c -0.38508,2.04384 -2.86529,5.17849 -4.90409,5.17849 -2.38907,0 -2.94565,-3.53235 -2.6355,-5.17849 l 5.14232,-27.29394 c 0.75769,-4.02148 3.62331,-3.9238 4.38888,-3.9238 z m 142.2585,1.3131 h 13.89941 c -1.03842,2.36666 -1.5735,4.71611 -1.54048,6.61407 0.23448,13.47599 16.21957,14.58397 14.24668,24.88737 -0.57115,2.98283 -1.86041,3.5715 -3.86281,3.71812 -0.96489,0.0707 -4.47489,-0.6364 -4.35426,-4.02766 0.069,-1.93904 1.14153,-5.68596 1.14153,-5.68596 l -12.16153,0.10335 -0.47491,5.65082 c -0.16008,0.84968 -0.26634,1.61584 -0.32556,2.31355 h -12.95838 l 2.45618,-11.74863 h 13.25294 l 1.93218,-10.56577 h -13.25294 z" /></g></g></g></g></svg>
