<?xml version="1.0"?>
<svg xmlns="http://www.w3.org/2000/svg" viewBox="0 0 174.764 185.348" width="174.764pt" xmlns:xlink="http://www.w3.org/1999/xlink" xmlns:inkscape="http://www.inkscape.org/namespaces/inkscape" version="1.1" height="185.348pt">
 <defs>
  <clipPath id="Clip0">
   <path d="M0 0 L174.764 0 L174.764 185.348 L0 185.348 L0 0 Z"></path>
  </clipPath>
  <clipPath id="Clip1">
   <path d="M0 0 L159.643 0 L159.643 114.626 L0 114.626 L0 0 Z"></path>
  </clipPath>
  <clipPath id="Clip2">
   <path d="M0 0 L143.753 0 L143.753 158.111 L0 158.111 L0 0 Z"></path>
  </clipPath>
  <clipPath id="Clip3">
   <path d="M0 0 L159.588 0 L159.588 115.595 L0 115.595 L0 0 Z"></path>
  </clipPath>
 </defs>
 <g id="Layer 1">
  <g clip-path="url(#Clip0)" transform="translate(7.86179e-07, 1.84031e-07) scale(1, 1)" clip-rule="evenodd" id="g81" style="fill:none; stroke:none">
   <path transform="translate(0, 0)" d="M91.2163 0.00948206 C82.8287 0.103312 74.4708 3.58125 68.7874 9.92665 C63.5008 15.6501 60.3024 22.8454 58.4279 30.1029 L58.4244 30.1183 L58.4209 30.1336 C57.5803 33.5853 57.2001 37.0661 56.9816 40.4982 C53.6142 44.374 51.9896 49.4109 53.6742 54.3387 L53.5585 53.7823 C53.6432 54.8138 53.8697 55.4445 53.9787 55.9005 C53.935 56.0834 53.9084 56.2616 53.8766 56.4432 C53.2246 56.8637 52.582 57.2973 51.9388 57.7311 L50.576 56.7052 C51.0354 54.8614 51.3554 52.9712 51.3637 51.0176 C51.509 47.9561 50.9353 44.2576 48.1107 41.7249 C46.9102 40.5811 45.3941 39.6069 43.6804 38.9193 C42.7194 35.6297 40.4242 32.425 36.7321 31.248 C33.6006 30.1192 29.9963 30.3221 27.0515 32.1684 C23.9361 33.9487 21.7548 36.0815 19.4039 36.7365 L19.3035 36.7654 L19.2048 36.8029 C16.5696 37.8026 13.7672 39.7308 12.7448 43.0026 C12.509 43.6295 12.3984 44.1763 12.2616 44.7448 C9.4467 46.1917 6.66577 48.4379 5.59403 51.9721 C5.18235 53.2502 5.11011 54.4482 5.0428 55.5977 C1.90537 59.814 0.894619 64.9912 0.784321 69.7563 L0.784321 69.7665 L0.784321 69.7767 C0.687735 76.6769 1.93223 83.7304 5.02919 90.0755 C6.00459 92.0752 7.19543 93.9376 8.42338 95.7699 L3.4112 106.567 L10.7355 113.891 L11.5232 114.019 C11.1464 115.989 10.8237 117.954 10.6504 119.898 L0 124.233 L2.46185 143.093 L9.53266 150.162 L16.9369 148.803 C17.1417 149.122 17.2994 149.374 17.512 149.684 L9.41356 157.464 L10.9856 159.126 C16.5936 165.055 22.7795 170.211 28.7239 175.456 L30.1785 176.74 L39.0392 169.62 C39.9224 170.005 40.68 170.384 41.4074 170.621 L39.3148 175.881 L46.6255 183.192 L67.5129 185.348 L72.2801 176.382 L81.3959 174.852 L87.6586 182.685 L110.989 174.336 L110.537 165.896 C114.89 163.706 119.113 161.215 123.167 158.454 L129.762 163.433 L149.39 146.188 L143.708 140.33 C146.753 136.854 149.527 133.243 151.966 129.509 L161.785 129.977 L171.351 109.372 L164.025 102.046 L162.55 101.808 C162.735 101.202 162.758 101.162 162.972 100.423 C163.415 98.8922 163.803 97.4324 164.058 96.0523 L174.764 91.7054 L172.301 72.8442 L165.102 65.6475 L158.161 67.7997 C157.799 67.3439 157.438 66.9072 157.104 66.4522 L165.456 58.4814 L158.076 51.1027 L144.634 39.2409 L135.485 46.6418 C134.78 46.262 134.061 45.9 133.331 45.5512 L135.538 40.0694 L130.793 35.3244 L130.793 36.0015 L130.727 35.7327 C129.975 32.6611 129.184 29.6078 128.394 26.5675 L128.384 26.5233 L128.37 26.4791 C124.96 15.2434 116.082 5.87414 104.887 2.12596 C104.886 2.1256 104.884 2.12632 104.883 2.12596 C100.49 0.607143 95.8421 -0.091047 91.2162 0.00948467 L91.2163 0.00948206 M91.2759 4.61673 L91.2776 4.61673 L91.3031 4.61673 C95.4032 4.52606 99.5211 5.14649 103.381 6.48141 L103.393 6.48655 L103.403 6.48995 C113.086 9.72436 120.976 18.0243 123.95 27.7959 C124.712 30.7267 125.467 33.6496 126.184 36.5732 L126.184 37.235 L130.123 41.1737 L128.284 45.7469 L128.398 46.3934 L128.398 46.3951 C128.398 46.3951 128.398 46.3969 128.398 46.3969 L128.401 46.4207 L128.406 46.4462 C128.452 46.6769 128.498 46.9063 128.542 47.1369 L128.549 47.1658 L128.555 47.1948 C128.568 47.2536 128.581 47.309 128.592 47.3615 L128.842 48.5116 L129.923 48.9829 C131.559 49.6968 133.126 50.4915 134.62 51.3614 L135.158 51.6744 L136.595 51.6744 L144.505 45.2756 L154.921 54.4646 L158.861 58.405 L150.977 65.9283 L152.188 67.5633 C152.407 67.8581 152.674 68.2298 152.972 68.6454 L152.976 68.6506 C152.977 68.6515 152.979 68.6532 152.979 68.6541 L153.662 69.6068 L153.728 69.6068 C154.315 70.3962 154.891 71.1988 155.615 72.0074 L156.602 73.1099 L163.812 70.8743 L167.933 74.9967 L169.733 88.7742 L159.793 92.8098 L159.719 94.273 C159.705 94.5334 159.131 97.1159 158.545 99.1423 C157.958 101.169 157.383 102.955 157.383 102.955 L156.561 105.509 L161.821 106.359 L165.814 110.352 L158.909 125.226 L149.577 124.78 L148.859 125.916 C146.021 130.407 142.683 134.76 138.908 138.887 L138.304 139.548 L138.304 141.378 L142.71 145.921 L129.543 157.49 L123.322 152.794 L121.949 153.761 C117.245 157.069 112.279 159.996 107.152 162.485 L105.776 163.154 L106.204 171.154 L89.2044 177.236 L83.3058 169.857 L69.2782 172.212 L64.9007 180.445 L48.7276 178.776 L44.7193 174.767 L47.3053 168.266 L45.5563 167.276 C43.4103 166.061 40.981 165.65 39.8432 164.978 L38.4702 164.164 L30.3156 170.716 C25.377 166.388 20.495 162.112 15.9852 157.546 L20.5312 153.177 L19.0102 151.831 L22.3958 148.743 C21.7599 147.875 20.2514 145.582 20.0701 145.223 L19.2926 143.684 L11.0819 145.191 L6.83191 140.941 L5.03188 127.163 L14.9388 123.131 L15.029 121.687 C15.2139 118.725 15.6634 115.697 16.3765 112.631 L16.9345 110.228 L12.9449 109.58 L8.95009 105.585 L13.6781 95.4027 L12.904 94.3104 C11.4922 92.3206 10.2364 90.2349 9.17297 88.0546 C6.45783 82.4918 5.30885 76.155 5.39427 69.862 L5.39427 69.8568 C5.4972 65.4386 6.45526 61.0303 9.02155 57.8776 L9.50813 57.2804 L9.53705 56.5131 C9.58409 55.3176 9.69513 54.2504 9.98111 53.3707 L9.98982 53.347 L9.99853 53.3214 C10.6316 51.2132 12.7199 49.5051 15.1553 48.4182 L16.2153 47.9452 L16.4671 46.8104 C16.6603 45.9358 16.836 45.1767 17.0744 44.5629 L17.105 44.4829 L17.1305 44.3996 C17.5452 43.0367 19.0641 41.7868 20.8412 41.1126 L20.6421 41.1772 C24.5343 40.0928 27.0129 37.484 29.3905 36.1361 L29.4381 36.1089 L29.484 36.08 C31.0956 35.0626 33.3267 34.8997 35.2091 35.59 L35.2618 35.6087 L35.3145 35.6257 C37.1891 36.2131 38.6992 38.1444 39.3041 40.318 L39.3722 40.5664 C39.387 40.7008 39.3962 40.8549 39.4981 41.1568 C39.621 41.5213 39.9234 42.1145 40.5359 42.5162 L40.8676 42.734 L41.2556 42.8275 C42.5041 43.1311 43.8153 43.9864 44.9662 45.0886 L44.9969 45.1175 L45.0274 45.1447 C46.367 46.3378 46.8802 48.5495 46.7645 50.8442 L46.761 50.9004 L46.761 50.9565 C46.7575 52.9774 46.4076 54.9822 45.7879 56.947 L45.2979 58.5003 L51.8021 63.3985 L53.1734 62.444 C54.4861 61.5296 55.8178 60.6449 57.1699 59.7899 L58.1907 59.1434 L58.2417 57.9372 C58.2621 57.447 58.3392 57.0053 58.4884 56.5778 L58.6841 56.018 L58.5837 55.4328 C58.4116 54.4178 58.1805 53.736 58.1533 53.4048 L58.1295 53.1189 L58.0376 52.8484 C56.8598 49.4033 57.9464 45.9873 60.8806 42.9449 L61.4743 42.329 L61.522 41.4766 C61.721 37.9765 62.0973 34.5349 62.8967 31.2447 C64.6391 24.5034 67.5763 18.0236 72.1843 13.0403 L72.1979 13.0266 L72.2099 13.0113 C76.9444 7.71835 84.1329 4.69442 91.2769 4.61687 L91.2759 4.61673 M43.451 38.4379 L43.667 38.9142 C43.6635 38.9128 43.6601 38.9106 43.6568 38.9091 C43.5861 38.747 43.5867 38.6451 43.451 38.4378 L43.451 38.4379 M137.917 68.6674 L134.594 73.1777 L135.229 74.3669 C136.471 77.477 137.491 79.8956 137.542 80.0171 L141.874 78.4638 C141.849 78.3808 141.812 78.3033 141.787 78.2205 C141.446 77.0997 141.065 75.996 140.618 74.9233 L139.615 72.5108 L139.487 72.5839 C139.466 72.5444 139.45 72.5026 139.429 72.4631 L137.917 68.6674 M32.7018 111.012 L32.0638 113.268 C31.3177 115.905 30.9177 118.444 30.6432 120.921 L30.5939 120.941 L30.4901 122.117 C30.4875 122.142 30.4823 122.168 30.4799 122.194 L30.4834 122.195 L30.4698 122.343 C30.3528 123.673 30.1819 125.126 30.1976 126.656 C30.1978 126.619 30.1959 126.568 30.1959 126.564 C30.196 126.562 30.1954 126.611 30.1959 126.658 C30.1959 126.662 30.1958 126.666 30.1959 126.67 L30.1959 126.702 L30.1976 126.729 L30.1976 126.736 C30.1977 126.747 30.1976 126.772 30.1976 126.772 L30.5906 133.923 L34.4425 127.885 C35.5955 126.077 36.7686 124.279 37.9489 122.491 L42.0458 116.288 L38.4032 117.768 C38.9022 116.982 39.0856 116.644 39.5363 115.963 L41.4758 113.034 L38.017 112.423 C36.9794 112.239 35.9553 111.992 34.9461 111.688 L32.7018 111.012 " style="fill:#171615; fill-rule:nonzero;stroke:none;"></path>
   <g clip-path="url(#Clip1)" transform="translate(2.51539, 33.0511) scale(1, 1)" clip-rule="evenodd" id="g69" style="fill:none; stroke:none">
    <path transform="translate(2.13145, 1.91178)" d="M122.524 0 L104.84 12.8905 C99.721 13.0736 94.4602 13.7742 89.1533 14.9791 L87.4373 6.64104 L81.7776 0.981324 L67.7852 22.5209 C62.6193 25.0146 57.616 27.9423 52.8673 31.2502 L46.124 26.173 L29.7265 40.5809 L35.3952 46.4423 L35.3947 46.4427 C31.5725 50.5877 28.1759 54.9648 25.2677 59.493 L1.53366 71.1136 L7.19337 76.7733 L16.3773 78.266 C14.9103 82.9859 14.026 87.6729 13.7408 92.2395 L0 107.055 L5.65972 112.715 L15.811 109.576 C15.9286 109.936 16.051 110.293 16.1779 110.648 L29.3195 101.622 C26.6247 92.5732 27.5572 81.7597 32.796 70.4762 C45.6267 42.8405 79.428 22.8516 108.293 25.8295 C120.528 27.0917 129.912 32.2774 135.687 39.9381 L150.437 32.6727 C150.047 32.1313 149.694 31.6334 149.393 31.2277 L157.511 23.4811 L151.851 17.8218 L136.793 20.0663 L136.792 20.0663 C133.057 17.8915 128.912 16.1848 124.432 14.9773 L128.184 5.65927 L122.524 0 Z" style="fill:#000000; fill-rule:nonzero;stroke:none;"></path>
    <path transform="translate(0, 0)" d="M106.127 0 L101.311 9.14252 C96.1928 9.3257 90.9319 10.0262 85.625 11.2312 L83.909 2.89311 L63.7442 10.1081 L64.2569 18.773 C59.0911 21.2666 54.0877 24.1944 49.339 27.5023 L42.5958 22.4251 L26.1982 36.833 L31.8669 42.6943 L31.8665 42.6948 C28.0442 46.8398 24.6476 51.2168 21.7395 55.7451 L11.9015 55.2855 L3.66511 73.0254 L12.849 74.5181 C11.382 79.2379 10.4977 83.925 10.2125 88.4916 L0 92.6473 L2.13145 108.967 L12.2828 105.828 C13.2374 108.75 14.5002 111.518 16.0586 114.106 L29.0022 105.216 C22.6909 94.6391 22.7871 80.6867 29.2678 66.7282 C42.0983 39.0924 75.8996 19.1032 104.765 22.0811 C119.629 23.6148 130.977 31.1355 135.969 42.7614 L150.507 35.6 C149.277 32.7041 147.724 29.9877 145.865 27.4798 L153.983 19.7332 L142.054 9.20779 L133.264 16.3183 C133.264 16.3183 133.264 16.3183 133.264 16.3183 C129.529 14.1436 125.383 12.4369 120.904 11.2294 L124.656 1.91178 L106.127 0 Z" style="fill:#e3000a; fill-rule:nonzero;stroke:none;"></path>
   </g>
   <g clip-path="url(#Clip2)" transform="translate(3.08429, 2.30327) scale(1, 1)" clip-rule="evenodd" id="g78" style="fill:none; stroke:none">
    <path transform="translate(0, 0)" d="M88.1675 0.00924692 C80.3969 0.0935946 72.6172 3.34741 67.407 9.17221 C62.4545 14.528 59.3845 21.3713 57.5754 28.3756 C56.7247 31.8691 56.34 35.4573 56.1362 39.0416 C53.5943 42.5391 51.665 45.1739 52.0531 49.4762 C52.1151 50.2313 53.1051 52.797 53.2269 53.5155 C52.3132 56.1328 50.858 58.3528 52.2498 60.5007 C52.8755 61.4662 54.7634 63.5853 55.6802 64.2794 C55.5341 66.5093 55.4401 68.7444 55.1885 70.9657 C52.3976 72.1994 49.0305 72.8846 46.1703 71.4802 C43.3391 70.1003 41.5462 67.3045 40.0868 64.695 C40.2054 64.3867 40.5581 64.0627 40.719 63.718 C43.7425 59.2848 45.9704 54.098 45.9803 48.6569 C46.1158 45.9693 45.5764 42.991 43.4759 41.1202 C42.1382 39.8391 40.5243 38.7251 38.714 38.285 C38.484 38.1341 38.5992 37.6414 38.4387 37.3964 C37.6687 34.6296 35.7449 32.0093 32.9174 31.1234 C30.3986 30.1996 27.4589 30.382 25.1687 31.828 C22.4025 33.3962 20.0692 35.7819 16.9385 36.6542 C14.7243 37.4942 12.5504 39.0895 11.8398 41.4252 C11.5156 42.26 11.3231 43.1372 11.1304 44.0095 C8.34131 45.2543 5.61831 47.3127 4.70479 50.3549 C4.31036 51.5682 4.19966 52.8506 4.14975 54.119 C1.10935 57.854 0.113911 62.7983 0.00494623 67.5057 C-0.0874329 74.1056 1.10918 80.8051 4.01669 86.762 C7.21929 93.3279 12.0329 99.0106 17.5191 103.786 C22.3644 107.979 28.168 111.264 34.5307 112.388 C32.5267 115.416 29.5739 120.287 29.5739 120.287 L29.4161 124.341 L136.582 76.8202 C136.582 76.8202 132.474 59.4507 129.13 55.653 C128.886 51.8757 128.54 48.0961 127.721 44.394 C126.44 37.8182 124.764 31.3265 123.08 24.8445 C119.889 14.3321 111.498 5.49017 101.05 2.00015 C96.9204 0.572063 92.5335 -0.0873109 88.1675 0.00924692 L88.1675 0.00924692 Z" style="fill:#ffffff; fill-rule:nonzero;stroke:none;"></path>
    <path transform="translate(2.28889, 2.30601)" d="M86.6869 0 C69.7617 0 61.2989 12.6937 57.6721 25.992 C54.586 37.3078 56.8434 56.2804 55.0414 70.2106 C42.4797 76.4459 37.6905 67.0263 35.0602 62.1943 C40.1504 55.3332 41.8307 50.044 41.3024 44.0088 C41.1631 42.4172 40.3372 40.9908 39.189 40.0817 C38.3663 39.4303 36.7462 38.2247 35.7872 38.1771 C34.91 38.1336 34.8228 37.974 34.3022 37.4866 C33.3207 31.2483 29.7777 30.8742 28.0546 30.5853 C24.0775 29.9186 20.5621 34.7578 16.7977 35.9934 C16.0447 36.2406 13.8714 37.0456 12.7819 38.1141 C11.5603 39.3592 11.2356 41.5329 10.8562 43.3034 C9.25297 44.1553 6.49727 44.9834 5.02722 47.7689 C3.99661 49.7217 4.28881 51.2405 4.14133 52.7322 C2.34066 54.4022 0.833275 57.8062 0.244392 61.9296 C-0.0671449 64.1111 -0.352349 69.6533 1.21401 76.2781 C2.7804 82.903 6.62617 89.8196 13.49 96.7293 C20.8668 104.155 28.2718 107.839 36.2563 108.227 C32.002 114.567 27.5492 121.147 23.5198 127.846 C15.7848 140.704 42.2469 155.805 42.2469 155.805 L102.576 152.777 C127.581 133.329 149.255 94.9658 138.75 80.5257 C133.709 73.5963 129.686 68.5746 129 67.3985 C126.884 63.7717 124.769 59.8427 124.467 52.5891 C124.164 45.3354 122.351 38.0818 119.026 24.7834 C115.701 11.485 103.612 0 86.6869 0 Z" style="fill:#000000; fill-rule:nonzero;stroke:none;"></path>
    <path transform="translate(6.32082, 40.6433)" d="M8.02552 4.44046 C8.02552 4.44046 10.7141 3.64926 11.4006 3.27986 C12.0871 2.91046 14.7952 1.79685 16.1405 1.79024 C17.4858 1.78362 19.8308 2.08827 20.8557 4.42049 C21.4219 5.70873 22.1426 6.31134 22.2684 6.69432 C20.7953 9.0723 19.5184 11.6217 21.2393 14.5151 C21.7194 15.3221 22.0596 15.9984 22.5813 16.4145 C21.4595 21.0194 18.3165 21.9443 17.2636 22.1264 C17.3852 19.5712 16.6074 17.19 15.7859 15.9412 C14.2973 13.6784 11.7142 11.2554 9.67389 11.2705 C7.17921 11.289 3.15503 13.0953 2.21177 13.8069 C5.16437 13.1494 7.63682 11.793 9.47261 12.4557 C10.8886 12.9669 12.9349 13.9726 14.4426 17.168 C15.757 19.9536 16.4994 24.4202 13.75 26.9249 C12.6775 27.9019 8.23177 32.4349 3.67007 25.704 C4.18748 26.6712 4.70561 27.494 5.2252 28.1819 C4.57774 28.3102 1.96571 28.7051 0.115341 27.1772 C1.68929 29.1059 4.84838 29.5393 5.869 29.3996 C4.96938 30.0198 1.87008 30.9017 0 28.888 C1.81631 31.6907 6.77564 30.7832 7.55616 30.2461 C8.64334 30.7197 11.6737 31.3247 14.7303 28.1825 C16.3266 26.5416 17.0034 25.4352 17.1881 23.5205 C22.9005 22.8537 23.6691 18.1651 23.8738 17.125 C28.2711 18.9305 34.3478 11.0352 34.3478 11.0352 C34.3478 11.0352 25.4348 18.3363 22.4693 13.5247 C19.9833 9.49108 27.0139 1.4193 30.4958 0 C28.3933 0.278973 24.8753 2.85175 22.6357 6.13008 C22.3772 5.56084 21.9219 4.53245 21.5781 3.61977 C20.9571 1.97146 17.8528 0.317454 15.9775 0.704896 C13.7505 1.16501 11.9694 2.64444 11.2321 3.04433 C10.1836 3.61295 9.07451 3.85813 8.02552 4.44046 L8.02552 4.44046 M31.0285 23.857 C31.0285 23.857 24.3152 31.0659 18.9986 32.3479 C24.2429 31.2283 29.8366 28.3884 32.4753 25.5278 C32.4848 25.4934 31.0285 23.857 31.0285 23.857 L31.0285 23.857 " style="fill:#ffffff; fill-rule:nonzero;stroke:none;"></path>
    <path transform="translate(33.7127, 18.1418)" d="M56.3692 0.41851 C45.2569 4.74472 44.6565 6.44712 43.9822 9.08362 C43.4832 11.035 43.2333 12.4785 43.0225 14.7654 C43.6269 15.8233 50.1253 23.9838 64.7837 24.815 C64.7837 24.815 66.8274 20.4865 66.8236 12.0076 C66.821 6.95137 62.6948 -2.04416 56.3692 0.41851 L56.3692 0.41851 M55.7166 3.80972 C61.8369 5.16978 60.8544 14.1436 60.0988 16.7126 C59.3432 19.2816 56.0714 20.9264 56.0714 20.9264 C50.8578 19.1885 46.7562 18.5573 46.6493 13.7832 C46.5906 11.1588 50.1483 2.5723 55.7166 3.80972 L55.7166 3.80972 M24.4349 22.6993 C24.5543 22.7025 24.6878 22.6916 24.8342 22.6682 C24.5348 19.397 26.3644 10.1686 28.9685 10.2321 C32.0664 10.3077 32.7465 17.6369 32.7465 17.6369 C32.785 17.9742 32.6945 18.3617 32.5061 18.7754 C35.3592 16.9683 37.8088 15.2187 37.8088 15.2187 C37.8088 15.2187 37.4056 13.89 36.0743 11.0351 C35.3499 9.48162 32.6466 7.60235 28.6694 6.88127 C25.3924 6.28715 24.0538 16.0024 24.4349 22.6993 L24.4349 22.6993 M61.9125 37.66 C61.9125 37.66 30.48 41.1355 27.911 45.669 C25.342 50.2026 22.1532 70.9774 19.9015 76.0437 C17.4836 81.4839 11.0662 94.7068 5.24328 104.454 C-1.70814 116.09 0.256088 135.433 0.256088 135.433 C0.256088 135.433 36.3761 137.65 47.0832 136.027 C47.0698 136.098 47.0573 136.168 47.0459 136.236 C47.117 136.02 49.8229 135.604 49.8229 135.604 C49.8229 135.604 57.6825 113.947 63.2391 103.475 C68.7956 93.0034 82.3591 74.1967 80.4357 59.878 C79.7849 64.557 78.1483 69.7708 76.0845 74.9404 C74.4205 70.9821 73.062 59.4397 71.5839 52.3182 C69.9216 44.3089 61.9125 37.66 61.9125 37.66 L61.9125 37.66 " style="fill:#ffffff; fill-rule:nonzero;stroke:none;"></path>
    <path transform="translate(54.6677, 32.5999)" d="M1.13769 20.8595 C1.13769 20.8595 0.0924419 17.9878 0.0042997 15.7971 C-0.105065 13.0788 1.89328 9.37454 3.55557 7.48556 C5.21787 5.59659 12.0191 0.120986 19.1963 0.00522493 C23.8809 -0.0703335 25.6944 0.685256 27.4322 1.51641 C29.1701 2.34755 32.1169 4.68988 34.9125 5.89883 C37.7082 7.10777 40.5795 7.93892 42.9974 9.22342 C45.4152 10.5079 48.9665 12.6956 48.9665 15.9482 C48.9665 18.6683 48.8154 20.7839 42.6951 23.6552 C36.5748 26.5264 31.2102 30.6066 28.9434 32.4956 C26.6766 34.3846 23.0498 37.4825 17.4584 37.4069 C11.8671 37.3314 11.4137 34.6112 9.07138 33.3267 C6.72905 32.0422 2.77627 30.3258 1.36436 28.3398 C-0.230813 26.0961 -0.297936 22.7485 1.13769 20.8595 L1.13769 20.8595 Z" style="fill:#fdc200; fill-rule:nonzero;stroke:none;"></path>
    <path transform="translate(53.287, 30.9938)" d="M23.47 1.68828 C24.0111 1.76641 26.8409 2.34883 27.2755 2.45939 C27.1387 1.76149 27.1424 1.25245 27.1353 0.631137 C26.446 0.181092 24.3604 0 23.5636 0 C23.4062 0.403187 23.4631 1.10052 23.47 1.68828 M17.5554 0.226153 C16.6802 0.217877 13.4705 1.2452 12.5852 2.3196 C12.713 2.74294 12.8197 3.13165 12.9189 3.52804 C14.7487 2.77012 16.4115 2.23643 18.1123 1.85214 C18.0277 1.55496 17.953 0.939023 17.5554 0.226153 L17.5554 0.226153 M38.3483 6.78098 L36.987 7.79725 C36.987 7.79725 43.4272 10.2956 45.4336 11.4146 C45.5683 11.0416 45.7619 10.601 45.9095 10.1204 C44.5813 9.3494 39.1097 7.08819 38.3483 6.78098 M5.2349 8.77092 C3.63205 10.0933 1.71384 11.7468 1.09938 13.6874 C-0.0496506 17.3165 0.127415 18.9737 1.56304 22.2605 C1.56304 22.2605 -0.373553 25.2487 0.0645041 27.1985 C0.506689 29.1668 2.16981 30.9462 4.74244 31.7627 C4.74244 31.7627 3.08985 30.4308 2.74513 29.9459 C1.14995 27.7022 1.3982 24.7861 2.51842 22.4656 C3.63865 20.1452 9.78901 15.9886 15.7387 15.5114 C22.1764 14.9952 31.1489 16.8989 32.8929 17.3278 C35.1975 17.8945 39.2022 15.854 39.2022 15.854 C39.2022 15.854 35.3112 16.8366 33.3089 16.2699 C29.8161 15.2814 20.7059 13.2575 15.3229 13.5469 C10.7735 13.7915 6.06516 17.3972 4.0267 19.2882 C3.48591 19.7899 2.44347 21.4343 2.40932 22.1502 C2.1392 21.3456 1.45577 19.1562 1.38523 17.403 C1.25129 14.074 4.07283 10.2135 5.2349 8.77092 L5.2349 8.77092 M43.2734 25.6465 C37.6624 28.368 32.3697 32.3969 30.3239 34.1017 C28.0572 35.9907 24.4307 39.0888 18.8393 39.0133 C13.2479 38.9377 12.7945 36.2172 10.4521 34.9327 C10.324 34.8624 7.94299 33.6236 7.94299 33.6236 C7.94299 33.6236 10.8754 35.781 11.4988 37.0601 C12.0599 38.2111 13.9385 41.5864 19.8699 41.0953 C25.8013 40.6042 31.1502 35.2392 34.3554 32.4235 C37.2112 29.9148 43.2734 25.6465 43.2734 25.6465 L43.2734 25.6465 " style="fill:#000000; fill-rule:nonzero;stroke:none;"></path>
    <path transform="translate(30.9704, 134.326)" d="M4.49883 10.1023 C4.49883 10.1023 22.7198 25.9994 54.1214 15.2303 C21.6227 24.6571 2.46871 3.84684 0.117862 0 C-0.732063 0.8613 3.2511 9.00873 4.49883 10.1023 L4.49883 10.1023 Z" style="fill:#000000; fill-rule:nonzero;stroke:none;"></path>
    <path transform="translate(82.9331, 24.2147)" d="M4.15572 3.95585 C3.53251 5.72726 2.1657 6.86016 1.10284 6.48624 C0.0399857 6.11232 -0.31642 4.37317 0.306787 2.60175 C0.929993 0.830322 2.29682 -0.302577 3.35967 0.0713477 C4.42252 0.445277 4.77893 2.18442 4.15572 3.95585 L4.15572 3.95585 Z" style="fill:#ffffff; fill-rule:nonzero;stroke:none;"></path>
    <path transform="translate(59.7881, 30.0445)" d="M2.26472 2.56965 C1.9251 3.72034 1.18023 4.45626 0.60101 4.21336 C0.0217898 3.97047 -0.172439 2.84074 0.16719 1.69005 C0.506816 0.539362 1.25169 -0.196549 1.8309 0.0463463 C2.41012 0.289242 2.60435 1.41896 2.26472 2.56965 L2.26472 2.56965 Z" style="fill:#ffffff; fill-rule:nonzero;stroke:none;"></path>
   </g>
   <g clip-path="url(#Clip3)" transform="translate(12.6603, 67.3018) scale(1, 1)" clip-rule="evenodd" id="g80" style="fill:none; stroke:none">
    <path transform="translate(8.71091e-07, 0)" d="M142.184 0 L127.673 7.59878 C135.524 18.0122 136.705 32.9991 129.312 48.9215 C116.482 76.5574 82.6805 96.5464 53.8153 93.5682 C36.7357 91.8059 21.1764 83.9415 19.84 59.3424 L7.73692 77.3473 C9.04398 81.0061 11.2707 85.3709 13.5346 88.4635 L0 90.2407 L5.65972 95.9004 L17.5882 106.426 L26.0091 99.6596 C29.7811 101.89 37.4556 101.466 29.3569 108.023 L35.0166 113.683 L53.5461 115.595 L58.1182 106.996 C63.3364 106.816 69.284 103.098 70.1111 106.999 L75.7708 112.659 L95.9361 105.444 L95.4977 97.2575 C100.738 94.7138 105.808 91.7236 110.613 88.3441 L116.992 93.1602 L133.39 78.7532 L127.948 73.1421 L127.948 73.1416 C131.811 68.918 135.233 64.4573 138.147 59.8452 L147.686 60.3007 L155.922 42.5608 L150.263 36.9015 C141.917 47.1891 149.121 31.6631 149.359 27.0914 L159.588 22.9384 L157.456 6.61913 L151.796 0.959411 C149.981 10.3181 144.981 3.87461 142.184 0.000331014 L142.184 0 Z" style="fill:#000000; fill-rule:nonzero;stroke:none;"></path>
    <path transform="translate(0, 0.309119)" d="M139.903 1.42109e-14 L125.913 7.22623 C128.949 17.6657 129.371 30.6362 123.653 42.9527 C110.822 70.5885 77.0204 90.5776 48.1551 87.5993 C35.009 86.2428 19.5414 79.0651 15.9634 64.0827 L5.16561 78.4771 C5.77503 79.4892 7.17713 81.5413 7.8749 82.4946 L7.80513 82.433 L0 89.9315 L11.9285 100.457 L20.3494 93.6907 C24.1214 95.9209 28.3184 97.6698 32.8608 98.9044 L29.3569 107.714 L47.8859 109.626 L52.4585 101.027 C57.6767 100.848 63.0435 100.13 68.4568 98.8881 L70.1111 106.69 L90.2764 99.4751 L89.838 91.2883 C95.0779 88.7446 100.148 85.7545 104.953 82.3749 L111.332 87.191 L127.73 72.784 L122.288 67.1729 L122.288 67.1725 C126.151 62.9487 129.573 58.4882 132.487 53.876 L142.026 54.3315 L150.263 36.5916 L141.191 35.1268 C142.62 30.3917 143.462 25.694 143.699 21.1223 L153.928 16.9692 L151.796 0.649962 L141.439 3.86178 C141.113 2.90422 140.295 0.923432 139.903 0 L139.903 1.42109e-14 Z" style="fill:#e3000a; fill-rule:nonzero;stroke:none;"></path>
   </g>
  </g>
 </g>
</svg>